<svg width="18" height="18" viewBox="0 0 18 18" fill="none" xmlns="http://www.w3.org/2000/svg">
<path fill-rule="evenodd" clip-rule="evenodd" d="M8.99999 0.666779C4.39999 0.666779 0.666656 4.40011 0.666656 9.00011C0.666656 13.6001 4.39999 17.3334 8.99999 17.3334C13.6 17.3334 17.3333 13.6001 17.3333 9.00011C17.3333 4.40011 13.6 0.666779 8.99999 0.666779ZM8.99999 3.16678C10.3833 3.16678 11.5 4.28345 11.5 5.66678C11.5 7.05011 10.3833 8.16678 8.99999 8.16678C7.61666 8.16678 6.49999 7.05011 6.49999 5.66678C6.49999 4.28345 7.61666 3.16678 8.99999 3.16678ZM3.99999 12.3168C5.07499 13.9334 6.91666 15.0001 8.99999 15.0001C11.0833 15.0001 12.925 13.9334 14 12.3168C13.975 10.6584 10.6583 9.75011 8.99999 9.75011C7.33332 9.75011 4.02499 10.6584 3.99999 12.3168Z" fill="#FF9138"/>
</svg>
