<svg width="18" height="20" viewBox="0 0 18 20" fill="none" xmlns="http://www.w3.org/2000/svg">
<path fill-rule="evenodd" clip-rule="evenodd" d="M13.3294 11.3416V4.16665H6.15441L3.59607 1.60831C3.88774 1.14165 4.40441 0.833313 4.99607 0.833313H13.3294C14.2461 0.833313 14.9961 1.58331 14.9961 2.49998V13.0083L13.3294 11.3416ZM13.3293 13.7L2.17101 2.54164C2.01532 2.38559 1.80394 2.2979 1.58351 2.2979C1.36308 2.2979 1.1517 2.38559 0.996008 2.54164C0.671008 2.86664 0.671008 3.39164 0.996008 3.71664L3.32934 6.0583V17.5C3.32934 18.4166 4.07934 19.1666 4.99601 19.1666H13.3293C14.1793 19.1666 14.871 18.525 14.9793 17.7083L15.8293 18.5583C16.1543 18.8833 16.6793 18.8833 17.0043 18.5583C17.3293 18.2333 17.3293 17.7083 17.0043 17.3833L14.996 15.3666L13.3293 13.7ZM4.99613 15.8333V7.72498L13.1045 15.8333H4.99613Z" fill="#959393"/>
</svg>
