<svg width="20" height="14" viewBox="0 0 20 14" fill="none" xmlns="http://www.w3.org/2000/svg">
<path fill-rule="evenodd" clip-rule="evenodd" d="M12.5 7.00013C14.3416 7.00013 15.8333 5.50847 15.8333 3.6668C15.8333 1.82513 14.3416 0.333466 12.5 0.333466C10.6583 0.333466 9.16665 1.82513 9.16665 3.6668C9.16665 5.50847 10.6583 7.00013 12.5 7.00013ZM4.99998 5.33347V3.6668C4.99998 3.20847 4.62498 2.83347 4.16665 2.83347C3.70831 2.83347 3.33331 3.20847 3.33331 3.6668V5.33347H1.66665C1.20831 5.33347 0.833313 5.70847 0.833313 6.1668C0.833313 6.62513 1.20831 7.00013 1.66665 7.00013H3.33331V8.6668C3.33331 9.12513 3.70831 9.50013 4.16665 9.50013C4.62498 9.50013 4.99998 9.12513 4.99998 8.6668V7.00013H6.66665C7.12498 7.00013 7.49998 6.62513 7.49998 6.1668C7.49998 5.70847 7.12498 5.33347 6.66665 5.33347H4.99998ZM5.83331 12.0001C5.83331 9.78346 10.275 8.6668 12.5 8.6668C14.725 8.6668 19.1666 9.78346 19.1666 12.0001V12.8335C19.1666 13.2918 18.7916 13.6668 18.3333 13.6668H6.66665C6.20831 13.6668 5.83331 13.2918 5.83331 12.8335V12.0001Z" fill="#2ED477"/>
</svg>
