<svg width="18" height="18" viewBox="0 0 18 18" fill="none" xmlns="http://www.w3.org/2000/svg">
<path fill-rule="evenodd" clip-rule="evenodd" d="M0.666656 9.00002C0.666656 4.40002 4.39166 0.666687 8.99166 0.666687C13.6 0.666687 17.3333 4.40002 17.3333 9.00002C17.3333 13.6 13.6 17.3334 8.99166 17.3334C4.39166 17.3334 0.666656 13.6 0.666656 9.00002ZM8.99988 11.875L11.6832 13.4917C11.9999 13.6834 12.3832 13.4 12.2999 13.0417L11.5915 9.98336L13.9499 7.94169C14.2332 7.70003 14.0832 7.24169 13.7165 7.20836L10.5999 6.94169L9.38321 4.07503C9.24154 3.73336 8.75821 3.73336 8.61654 4.07503L7.39988 6.95003L4.28321 7.21669C3.91654 7.25003 3.76654 7.70836 4.04154 7.95003L6.39988 9.99169L5.69154 13.0417C5.60821 13.4 5.99988 13.6834 6.31654 13.4917L8.99988 11.875Z" fill="#00A2E1"/>
</svg>
